<svg width="45" height="45" viewBox="0 0 45 45" fill="none" xmlns="http://www.w3.org/2000/svg">
<path fill-rule="evenodd" clip-rule="evenodd" d="M40.9466 20.8618L40.5169 25.428C39.8087 32.9516 39.4547 36.7134 37.2373 38.9816C35.0199 41.25 31.6965 41.25 25.0498 41.25H19.9502C13.3034 41.25 9.98008 41.25 7.76266 38.9816C5.54527 36.7134 5.19121 32.9516 4.48312 25.428L4.05339 20.8618C3.71587 17.2757 3.54712 15.4826 4.1606 14.7414C4.49246 14.3404 4.94373 14.0947 5.42623 14.0524C6.31815 13.974 7.43827 15.2492 9.6785 17.7995C10.8371 19.1184 11.4163 19.7779 12.0626 19.8801C12.4206 19.9365 12.7855 19.8784 13.1161 19.7121C13.7128 19.4117 14.1107 18.5965 14.9064 16.966L19.1004 8.37161C20.604 5.29054 21.3559 3.75 22.5 3.75C23.6441 3.75 24.396 5.29054 25.8996 8.37159L30.0936 16.966C30.8893 18.5965 31.2872 19.4117 31.8838 19.7121C32.2146 19.8784 32.5794 19.9365 32.9374 19.8801C33.5837 19.7779 34.1629 19.1184 35.3214 17.7995C37.5617 15.2492 38.6818 13.974 39.5737 14.0524C40.0562 14.0947 40.5075 14.3404 40.8394 14.7414C41.4529 15.4826 41.2841 17.2757 40.9466 20.8618ZM24.2857 23.8106L24.1014 23.4801C23.3889 22.2019 23.0327 21.5629 22.5 21.5629C21.9673 21.5629 21.6111 22.2019 20.8986 23.4801L20.7142 23.8106C20.5119 24.1738 20.4107 24.3555 20.2528 24.4753C20.0949 24.5951 19.8984 24.6396 19.5052 24.7286L19.1473 24.8096C17.7637 25.1226 17.0719 25.2791 16.9073 25.8084C16.7427 26.3377 17.2143 26.8892 18.1576 27.9921L18.4016 28.2774C18.6696 28.5909 18.8036 28.7477 18.864 28.9416C18.9242 29.1354 18.9039 29.3445 18.8634 29.7626L18.8265 30.1434C18.6839 31.6149 18.6126 32.3509 19.0434 32.6779C19.4745 33.0051 20.1221 32.7067 21.4176 32.1103L21.7526 31.956C22.1209 31.7865 22.3048 31.7018 22.5 31.7018C22.6952 31.7018 22.8791 31.7865 23.2474 31.956L23.5824 32.1103C24.8779 32.7067 25.5255 33.0051 25.9566 32.6779C26.3874 32.3509 26.316 31.6149 26.1735 30.1434L26.1366 29.7626C26.0961 29.3445 26.0758 29.1354 26.136 28.9416C26.1964 28.7477 26.3304 28.5909 26.5984 28.2774L26.8425 27.9921C27.7856 26.8892 28.2574 26.3377 28.0927 25.8084C27.9281 25.2791 27.2362 25.1226 25.8527 24.8096L25.4947 24.7286C25.1016 24.6396 24.9051 24.5951 24.7472 24.4753C24.5893 24.3555 24.4881 24.1738 24.2857 23.8106Z" fill="#F5B546"/>
</svg>
