<svg width="222" height="102" viewBox="0 0 222 102" fill="none" xmlns="http://www.w3.org/2000/svg">
<g clip-path="url(#clip0_6873_17503)">
<path d="M328.061 -86.213C323.315 -67.755 317.411 -50.2225 308.838 -35.6429C306.058 -30.9158 302.977 -26.4799 298.94 -23.4274C290.708 -17.203 279.057 -17.078 269.169 -13.7167C256.611 -9.44854 246.895 0.297912 241.12 14.079C236.776 24.449 233.122 38.4267 225.298 44.7092C218.191 50.4165 202.375 41.2538 192.309 39.2435C182 37.1851 172.937 39.5054 166.33 45.3494C162.869 48.4113 160.066 52.4453 158.109 57.3388C156.238 62.0189 156.317 69.2979 149.525 66.2808C147.28 65.2835 145.019 63.2654 142.755 61.7823C134.889 56.6291 127.238 59.0529 125.998 67.0921" stroke="url(#paint0_linear_6873_17503)" stroke-width="0.0761626" stroke-miterlimit="10"/>
<path d="M327.759 -85.5727C323.384 -67.0417 317.68 -49.4303 309.162 -34.9141C306.329 -30.0754 303.11 -25.6813 299.064 -22.4593C294.176 -18.5843 288.076 -16.8419 281.826 -15.3385C277.56 -14.3118 273.223 -13.397 269.153 -11.9931C261.112 -9.21867 254.112 -4.43325 248.438 2.0015C245.12 5.76433 242.258 10.0923 239.91 14.9299C238.255 18.317 236.676 22.1048 234.984 25.8548C232.6 31.1187 229.989 36.305 226.654 40.2949C225.458 41.7302 224.169 43.0113 222.763 44.0775C216.948 48.4779 205.984 44.1415 196.751 41.4201C194.272 40.6838 191.918 40.0634 189.819 39.7589C181.173 38.4719 173.502 40.3595 167.497 44.8456C166.463 45.6175 165.477 46.4669 164.544 47.3911C161.216 50.686 158.529 54.9283 156.601 59.9525C155.46 62.9286 155.022 66.8517 153.249 68.7481C152.157 69.916 150.56 70.3018 147.993 69.2504C145.75 68.3318 143.483 66.4301 141.211 65.0326C133.316 60.1711 125.581 62.5705 124.167 70.5824" stroke="url(#paint1_linear_6873_17503)" stroke-width="0.0761626" stroke-miterlimit="10"/>
<path d="M327.457 -84.9336C323.454 -66.3287 317.947 -48.6393 309.485 -34.1864C306.598 -29.2349 303.242 -24.8827 299.187 -21.4931C294.302 -17.4432 288.203 -15.5026 281.924 -13.8469C277.636 -12.7156 273.263 -11.7173 269.134 -10.2712C260.977 -7.41722 253.77 -2.72064 247.807 3.45621C244.32 7.06722 241.263 11.1883 238.698 15.7791C236.881 18.9905 235.134 22.5768 233.277 26.1186C230.654 31.088 227.806 35.9677 224.282 39.7898C223.023 41.1654 221.678 42.4033 220.225 43.4455C214.197 47.7479 203.279 43.8146 194.158 41.5663C191.712 40.9526 189.395 40.4665 187.328 40.2758C178.843 39.4933 171.376 41.8023 165.595 46.687C164.6 47.5264 163.654 48.444 162.757 49.433C159.561 52.9611 156.99 57.4119 155.093 62.5675C153.969 65.6229 153.504 69.5756 151.714 71.5373C150.61 72.7463 149.005 73.1738 146.46 72.2213C144.217 71.3818 141.948 69.597 139.665 68.284C131.744 63.7141 123.922 66.0896 122.336 74.0728" stroke="url(#paint2_linear_6873_17503)" stroke-width="0.0761626" stroke-miterlimit="10"/>
<path d="M327.154 -84.2948C323.522 -65.6167 318.215 -47.8474 309.81 -33.4591C306.868 -28.3958 303.375 -24.0855 299.311 -20.5265C294.431 -16.3008 288.332 -14.1628 282.023 -12.3548C277.714 -11.1181 273.305 -10.0364 269.116 -8.54988C260.844 -5.61555 253.429 -1.00856 247.177 4.9092C243.521 8.36959 240.284 12.3002 237.486 16.6268C235.516 19.6739 233.591 23.0466 231.571 26.3806C228.708 31.0559 225.623 35.6285 221.912 39.2818C220.59 40.5974 219.189 41.7926 217.689 42.8113C211.447 47.0159 200.586 43.5171 191.566 41.7096C189.154 41.2259 186.873 40.8615 184.837 40.7887C176.508 40.4906 169.25 43.2416 163.695 48.5252C162.738 49.4332 161.831 50.4173 160.972 51.4718C157.909 55.2329 155.453 59.892 153.587 65.179C152.481 68.3138 151.989 72.2959 150.181 74.3232C149.066 75.5741 147.454 76.0444 144.928 75.1879C142.687 74.4286 140.413 72.7589 138.121 71.5305C130.171 67.2522 122.265 69.6024 120.505 77.5593" stroke="url(#paint3_linear_6873_17503)" stroke-width="0.0761626" stroke-miterlimit="10"/>
<path d="M326.853 -83.654C323.591 -64.903 318.484 -47.0547 310.135 -32.729C307.14 -27.5529 303.52 -23.2701 299.435 -19.558C294.572 -15.139 288.462 -12.8213 282.123 -10.8598C277.793 -9.51879 273.348 -8.35266 269.101 -6.82489C260.712 -3.81004 253.091 0.708111 246.549 6.36702C242.724 9.67559 239.295 13.4051 236.276 17.4791C234.146 20.3544 232.052 23.5207 229.867 26.6485C226.765 31.0293 223.443 35.2953 219.544 38.7798C218.158 40.0357 216.701 41.1879 215.154 42.1822C208.7 46.2888 197.889 43.2022 188.976 41.8579C186.596 41.4989 184.351 41.2612 182.348 41.3065C174.176 41.4923 167.127 44.6854 161.796 50.3676C160.877 51.3432 160.008 52.3947 159.187 53.5147C156.257 57.5087 153.916 62.3765 152.08 67.794C150.992 71.0081 150.474 75.0186 148.648 77.1124C147.522 78.4053 145.901 78.9186 143.396 78.1588C141.156 77.4798 138.88 75.9258 136.578 74.7819C128.6 70.7954 120.608 73.1215 118.676 81.0497" stroke="url(#paint4_linear_6873_17503)" stroke-width="0.0761626" stroke-miterlimit="10"/>
<path d="M326.55 -83.0151C323.661 -64.1902 318.752 -46.263 310.459 -32.0015C307.409 -26.7135 303.655 -22.469 299.558 -18.592C294.701 -13.9946 288.59 -11.4822 282.221 -9.36842C277.87 -7.92191 273.39 -6.67245 269.082 -5.1042C260.578 -2.00905 252.75 2.41929 245.919 7.82031C241.925 10.9783 238.303 14.5045 235.064 18.3268C232.775 21.0291 230.519 24.0028 228.16 26.9108C224.832 31.0143 221.248 34.9378 217.173 38.2721C215.719 39.4617 214.211 40.5772 212.616 41.5476C205.949 45.5564 195.189 42.8805 186.383 42.0017C184.037 41.7672 181.828 41.6567 179.856 41.82C171.84 42.4866 165.001 46.1249 159.894 52.2067C159.015 53.2506 158.184 54.3686 157.4 55.5544C154.603 59.7824 152.377 64.8588 150.571 70.4067C149.501 73.7003 148.955 77.7403 147.113 79.8995C145.975 81.2344 144.346 81.7906 141.863 81.1274C139.623 80.5288 137.344 79.0906 135.032 78.0312C127.027 74.3362 118.95 76.6381 116.844 84.5392" stroke="url(#paint5_linear_6873_17503)" stroke-width="0.0761626" stroke-miterlimit="10"/>
<path d="M326.248 -82.3744C323.73 -63.4765 319.02 -45.4703 310.783 -31.2723C307.68 -25.8718 303.79 -21.6673 299.682 -17.6234C294.832 -12.8475 288.719 -10.1414 282.32 -7.8744C277.947 -6.32336 273.431 -4.9894 269.065 -3.38017C260.445 -0.204484 252.411 4.13502 245.29 9.27621C241.127 12.2823 237.312 15.6068 233.853 19.1772C231.403 21.7068 228.98 24.477 226.455 27.1755C222.889 30.9878 219.065 34.5987 214.804 37.7671C213.286 38.8957 211.723 39.9704 210.08 40.9153C203.2 44.8262 192.491 42.5611 183.791 42.1469C181.478 42.0369 179.305 42.0521 177.366 42.3358C169.507 43.483 162.876 47.5669 157.994 54.0471C157.153 55.1587 156.361 56.344 155.614 57.5944C152.95 62.0554 150.839 67.3402 149.063 73.0198C148.011 76.3927 147.439 80.462 145.578 82.6869C144.43 84.0635 142.792 84.6643 140.33 84.0965C138.091 83.5795 135.808 82.2548 133.487 81.2798C125.454 77.8766 117.291 80.1534 115.013 88.0276" stroke="url(#paint6_linear_6873_17503)" stroke-width="0.0761626" stroke-miterlimit="10"/>
<path d="M325.946 -81.7353C323.798 -62.7642 319.288 -44.6793 311.106 -30.5445C307.949 -25.0322 303.923 -20.8679 299.805 -16.6572C294.961 -11.7037 288.847 -8.80201 282.418 -6.38278C278.024 -4.72625 273.472 -3.30895 269.046 -1.65924C260.31 1.59674 252.068 5.84666 244.659 10.7297C240.328 13.585 236.319 16.7067 232.64 20.0254C230.029 22.3824 227.437 24.9492 224.748 27.4393C220.943 30.9592 216.88 34.2583 212.433 37.2608C210.852 38.3284 209.232 39.3614 207.542 40.2822C200.448 44.0952 189.792 42.2394 181.198 42.291C178.918 42.3045 176.781 42.4466 174.873 42.8495C167.17 44.4751 160.749 49.0069 156.091 55.8864C155.289 57.0656 154.536 58.3193 153.826 59.6342C151.295 64.3281 149.299 69.8216 147.554 75.6316C146.519 79.0838 145.92 83.1828 144.042 85.473C142.882 86.8906 141.236 87.5377 138.795 87.0632C136.556 86.628 134.271 85.4176 131.94 84.5272C123.88 81.4145 115.632 83.6681 113.179 91.5142" stroke="url(#paint7_linear_6873_17503)" stroke-width="0.0761626" stroke-miterlimit="10"/>
<path d="M325.643 -81.0965C323.867 -62.0514 319.557 -43.8876 311.431 -29.8163C308.22 -24.1912 304.058 -20.0681 299.93 -15.6897C295.091 -10.5596 288.976 -7.46123 282.518 -4.88877C278.103 -3.12795 273.516 -1.62614 269.03 0.0650124C260.178 3.40152 251.729 7.56163 244.031 12.1868C239.53 14.8905 235.327 17.8084 231.431 20.877C228.658 23.0605 225.898 25.4245 223.043 27.7052C219.001 30.9338 214.699 33.921 210.064 36.7569C208.419 37.7638 206.744 38.7545 205.007 39.6511C197.701 43.3662 187.095 41.9187 178.607 42.4374C176.36 42.5744 174.26 42.8432 172.384 43.3654C164.836 45.4674 158.625 50.4488 154.193 57.7275C153.429 58.9751 152.715 60.2952 152.042 61.6761C149.644 66.603 147.763 72.3051 146.048 78.2465C145.031 81.7781 144.405 85.9055 142.51 88.2622C141.338 89.7218 139.684 90.4155 137.265 90.034C135.026 89.6816 132.738 88.5836 130.398 87.7787C122.309 84.9577 113.976 87.1872 111.351 95.0055" stroke="url(#paint8_linear_6873_17503)" stroke-width="0.0761626" stroke-miterlimit="10"/>
<path d="M325.341 -80.4559C323.936 -61.3379 319.825 -43.0951 311.755 -29.0871C308.49 -23.3502 304.192 -19.2673 300.052 -14.7218C295.219 -9.41512 289.104 -6.12015 282.616 -3.39541C278.18 -1.52911 273.555 0.0552886 269.011 1.78742C260.044 5.20423 251.388 9.27572 243.4 13.6408C238.73 16.1937 234.334 18.9078 230.219 21.7265C227.284 23.7365 224.357 25.898 221.337 27.9692C217.056 30.9056 212.516 33.5819 207.693 36.2512C205.984 37.1971 204.254 38.1461 202.469 39.0184C194.949 42.6357 184.394 41.5957 176.013 42.5831C173.8 42.8435 171.735 43.2385 169.892 43.8808C162.5 46.4579 156.499 51.8902 152.29 59.5676C151.565 60.8828 150.89 62.2703 150.254 63.7166C147.989 68.8765 146.224 74.788 144.539 80.86C143.54 84.4708 142.886 88.628 140.974 91.0501C139.791 92.5516 138.129 93.2919 135.73 93.0037C133.492 92.7342 131.201 91.7493 128.851 91.028C120.735 88.4985 112.315 90.7032 109.517 98.494" stroke="url(#paint9_linear_6873_17503)" stroke-width="0.0761626" stroke-miterlimit="10"/>
<path d="M325.039 -79.8165C324.005 -60.6256 320.094 -42.3029 312.079 -28.3593C308.76 -22.5096 304.327 -18.4679 300.176 -13.7546C295.349 -8.27117 289.234 -4.78008 282.714 -1.90261C278.257 0.0682252 273.597 1.7369 268.994 3.51048C259.911 7.00781 251.047 10.9895 242.77 15.0967C237.931 17.498 233.34 20.0074 229.008 22.5769C225.911 24.4124 222.816 26.3723 219.631 28.2351C215.111 30.8785 210.333 33.2446 205.324 35.748C203.552 36.6329 201.765 37.5402 199.934 38.3881C192.201 41.9074 181.697 41.2736 173.422 42.7302C171.242 43.1142 169.213 43.6349 167.401 44.3976C160.164 47.4478 154.374 53.3331 150.39 61.4099C149.704 62.7937 149.067 64.2477 148.469 65.7595C146.336 71.1524 144.686 77.2724 143.032 83.4747C142.051 87.1648 141.371 91.3514 139.441 93.8391C138.246 95.3826 136.576 96.1703 134.199 95.9742C131.961 95.7887 129.668 94.9215 127.308 94.2793C119.169 92.064 110.659 94.2218 107.687 101.985" stroke="url(#paint10_linear_6873_17503)" stroke-width="0.0761626" stroke-miterlimit="10"/>
<path d="M324.737 -79.178C324.074 -59.9129 320.361 -41.5122 312.403 -27.6323C309.03 -21.6708 304.46 -17.6701 300.3 -12.7892C295.477 -7.13013 289.362 -3.44147 282.813 -0.411732C278.334 1.66459 273.639 3.41658 268.975 5.23065C259.776 8.80827 250.706 12.7004 242.14 16.5495C237.132 18.7999 232.346 21.1041 227.796 23.4241C224.537 25.0852 221.274 26.8426 217.925 28.4967C213.166 30.8469 208.151 32.9039 202.953 35.2398C201.118 36.0649 199.275 36.929 197.396 37.753C189.45 41.1745 178.996 40.9459 170.829 42.8726C168.681 43.3788 166.688 44.0255 164.91 44.9106C157.826 48.432 152.247 54.7723 148.488 63.2475C147.84 64.6987 147.243 66.221 146.682 67.7975C144.682 73.4234 143.147 79.7521 141.523 86.0858C140.56 89.8553 139.852 94.0705 137.905 96.6245C136.7 98.2097 135.022 99.0464 132.665 98.9402C130.427 98.8399 128.132 98.0836 125.761 97.5249C117.595 95.6012 108.999 97.7351 105.855 105.471" stroke="url(#paint11_linear_6873_17503)" stroke-width="0.0761626" stroke-miterlimit="10"/>
<path d="M324.435 -78.5369C324.143 -59.1989 320.63 -40.7182 312.727 -26.9016C309.301 -20.8276 304.594 -16.8688 300.424 -11.8192C295.606 -5.98446 289.49 -2.09919 282.912 1.08378C278.412 3.26439 273.681 5.10092 268.958 6.95619C259.644 10.6143 250.366 14.4176 241.511 18.0079C236.334 20.1067 231.353 22.2062 226.585 24.2772C223.164 25.7638 219.733 27.3187 216.219 28.7643C211.221 30.8215 205.968 32.5693 200.584 34.7374C198.685 35.5016 196.786 36.3239 194.861 37.1244C186.702 40.4479 176.297 40.6236 168.239 43.0221C166.124 43.6507 164.166 44.4234 162.421 45.4296C155.491 49.4213 150.124 56.2174 146.59 65.0921C145.981 66.6119 145.421 68.2006 144.897 69.8428C143.031 75.7027 141.611 82.2388 140.018 88.7041C139.072 92.553 138.337 96.7976 136.373 99.4171C135.156 101.043 133.47 101.93 131.134 101.915C128.898 101.9 126.599 101.254 124.218 100.78C116.025 99.1488 107.343 101.257 104.025 108.965" stroke="url(#paint12_linear_6873_17503)" stroke-width="0.0761626" stroke-miterlimit="10"/>
<path d="M324.133 -77.8978C324.212 -58.4869 320.865 -39.9644 313.052 -26.1741C309.557 -20.0047 304.727 -16.0714 300.547 -10.8532C295.734 -4.84366 289.619 -0.760104 283.011 2.5761C278.49 4.8622 273.723 6.78227 268.941 8.67779C259.511 12.4162 250.026 16.1297 240.882 19.4611C235.536 21.409 230.358 23.3012 225.374 25.1249C221.79 26.4361 218.191 27.7884 214.514 29.0273C209.276 30.7915 203.788 32.2299 198.214 34.2306C196.252 34.9348 194.297 35.7144 192.324 36.4907C183.952 39.7165 173.597 40.2952 165.646 43.1659C163.565 43.9168 161.642 44.8154 159.93 45.9431C153.152 50.404 147.999 57.6569 144.689 66.9299C144.118 68.5173 143.597 70.1734 143.111 71.8811C141.378 77.9739 140.072 84.7187 138.509 91.3145C137.582 95.2427 136.82 99.5169 134.838 102.202C133.61 103.87 131.916 104.806 129.601 104.881C127.366 104.953 125.064 104.416 122.674 104.027C114.454 102.688 105.685 104.771 102.195 112.452" stroke="url(#paint13_linear_6873_17503)" stroke-width="0.0761626" stroke-miterlimit="10"/>
<path d="M323.83 -77.259C324.281 -57.7741 321.133 -39.1737 313.375 -25.4466C309.826 -19.1654 304.859 -15.2742 300.67 -9.88732C295.86 -3.70285 289.747 0.578993 283.109 4.06747C278.567 6.45809 273.764 8.46246 268.922 10.3994C259.375 14.2174 249.685 17.843 240.251 20.9156C234.736 22.7119 229.361 24.3976 224.161 25.9738C220.414 27.1088 216.649 28.2604 212.807 29.2908C207.329 30.7611 201.604 31.8922 195.843 33.7243C193.817 34.3687 191.807 35.1061 189.786 35.8573C181.201 38.985 170.896 39.9671 163.053 43.3099C161.003 44.1834 159.117 45.2078 157.437 46.4568C150.81 51.3853 145.871 59.0967 142.786 68.7691C142.254 70.4239 141.772 72.1475 141.323 73.9209C139.723 80.2467 138.533 87.201 137 93.9272C136.09 97.9338 135.301 102.237 133.302 104.989C132.062 106.699 130.362 107.686 128.067 107.85C125.833 108.008 123.527 107.58 121.127 107.275C112.88 106.228 104.026 108.287 100.362 115.939" stroke="url(#paint14_linear_6873_17503)" stroke-width="0.0761626" stroke-miterlimit="10"/>
<path d="M323.528 -76.6184C324.35 -57.0604 321.402 -38.3803 313.7 -24.7176C310.096 -18.3246 304.993 -14.4753 300.795 -8.91896C295.989 -2.55961 289.876 1.92053 283.209 5.56127C278.645 8.05738 273.807 10.1451 268.906 12.1223C259.243 16.0206 249.345 19.5566 239.622 22.3712C233.938 24.0167 228.368 25.4951 222.951 26.824C219.041 27.7836 215.108 28.7326 211.102 29.5555C205.384 30.7307 199.423 31.5556 193.474 33.219C191.385 33.8034 189.318 34.4981 187.251 35.2248C178.452 38.2548 168.196 39.6381 160.461 43.4549C158.445 44.4498 156.594 45.6001 154.947 46.9724C148.472 52.3673 143.747 60.5386 140.886 70.6103C140.393 72.3337 139.95 74.1246 139.539 75.9626C138.071 82.5213 136.996 89.6841 135.494 96.5419C134.601 100.628 133.786 104.961 131.769 107.778C130.518 109.53 128.811 110.569 126.536 110.82C124.303 111.066 121.994 110.747 119.584 110.527C111.309 109.771 102.368 111.805 98.5324 119.431" stroke="url(#paint15_linear_6873_17503)" stroke-width="0.0761626" stroke-miterlimit="10"/>
<path d="M323.226 -75.9793C324.419 -56.3483 321.702 -37.5521 314.023 -23.9899C310.381 -17.4667 305.124 -13.6777 300.917 -7.9528C296.116 -1.41856 290.005 3.25964 283.306 7.05289C278.722 9.65329 273.847 11.8245 268.887 13.8442C259.109 17.823 249.004 21.2692 238.992 23.8247C233.138 25.3187 227.371 26.5894 221.738 27.6722C217.664 28.4544 213.564 29.2029 209.395 29.819C203.437 30.7002 197.241 31.2179 191.102 32.7128C188.951 33.2372 186.827 33.8891 184.712 34.5916C175.701 37.5236 165.493 39.3083 157.868 43.6001C155.884 44.7173 154.068 45.9929 152.455 47.4871C146.13 53.3476 141.62 61.9793 138.984 72.4496C138.53 74.2404 138.125 76.0989 137.751 78.0025C136.416 84.7943 135.456 92.1657 133.984 99.154C133.109 103.319 132.267 107.682 130.233 110.564C128.971 112.357 127.256 113.449 125.001 113.787C122.77 114.121 120.454 113.903 118.037 113.774C109.727 113.286 100.709 115.319 96.6989 122.917" stroke="url(#paint16_linear_6873_17503)" stroke-width="0.0761626" stroke-miterlimit="10"/>
<path d="M322.923 -75.3398C324.488 -55.6349 321.971 -36.7596 314.348 -23.2609C310.651 -16.6261 305.258 -12.8791 301.042 -6.98447C296.243 -0.276309 290.133 4.60018 283.406 8.54763C278.801 11.2535 273.889 13.5083 268.87 15.5682C258.976 19.6273 248.664 22.9849 238.363 25.2816C232.34 26.6247 226.376 27.6871 220.527 28.5235C216.29 29.1294 212.023 29.6751 207.689 30.0849C201.491 30.671 195.059 30.8825 188.733 32.2086C186.518 32.673 184.339 33.282 182.176 33.9603C172.952 36.7946 162.791 38.9787 155.277 43.7461C153.325 44.9849 151.544 46.3852 149.965 48.0027C143.789 54.3282 139.496 63.421 137.084 74.2907C136.669 76.1501 136.303 78.0749 135.965 80.0432C134.763 87.068 133.919 94.6478 132.477 101.768C131.619 106.012 130.75 110.403 128.7 113.352C127.426 115.187 125.705 116.332 123.469 116.757C121.241 117.18 118.92 117.067 116.493 117.023C108.155 116.827 99.0514 118.836 94.8682 126.407" stroke="url(#paint17_linear_6873_17503)" stroke-width="0.0761626" stroke-miterlimit="10"/>
<path d="M322.622 -74.6997C324.557 -54.9219 322.239 -35.9677 314.673 -22.5325C310.922 -15.7849 305.391 -12.0817 301.166 -6.01758C296.371 0.864501 290.262 5.94023 283.505 10.0399C278.878 12.8504 273.932 15.1894 268.853 17.2905C258.844 21.4302 248.324 24.698 237.734 26.7365C231.543 27.928 225.383 28.7816 219.317 29.373C214.917 29.8014 210.483 30.1466 205.985 30.3487C199.546 30.6389 192.88 30.546 186.365 31.7036C184.087 32.1082 181.851 32.6742 179.642 33.3284C170.203 36.0648 160.09 38.6484 152.686 43.8915C150.766 45.2508 149.021 46.7773 147.475 48.5178C141.447 55.3063 137.372 64.8622 135.185 76.1302C134.807 78.0573 134.48 80.0494 134.18 82.0832C133.111 89.341 132.382 97.1303 130.971 104.38C130.131 108.704 129.235 113.124 127.167 116.138C125.882 118.015 124.156 119.213 121.938 119.725C119.712 120.238 117.386 120.231 114.949 120.272C106.583 120.366 97.3949 122.351 93.0391 129.895" stroke="url(#paint18_linear_6873_17503)" stroke-width="0.0761626" stroke-miterlimit="10"/>
<path d="M322.319 -74.0599C324.626 -54.2091 322.507 -35.1759 314.996 -21.804C311.191 -14.9446 305.521 -11.284 301.288 -5.04948C296.497 2.00653 290.39 7.28154 283.603 11.5335C278.955 14.4494 273.972 16.8718 268.834 19.0134C258.709 23.2333 247.982 26.4125 237.102 28.1913C230.742 29.2319 224.385 29.8762 218.104 30.2222C213.54 30.4731 208.938 30.6169 204.277 30.6134C197.598 30.6084 190.696 30.2104 183.993 31.1983C181.652 31.5429 179.36 32.0662 177.103 32.6959C167.452 35.3343 157.385 38.3176 150.092 44.0374C148.204 45.5183 146.494 47.1696 144.982 49.0335C139.102 56.2852 135.244 66.3041 133.282 77.9714C132.944 79.9668 132.655 82.0266 132.393 84.1249C131.457 91.6166 130.843 99.6136 129.462 106.994C128.64 111.398 127.717 115.848 125.632 118.928C124.335 120.847 122.603 122.099 120.405 122.696C118.182 123.299 115.85 123.398 113.404 123.524C105.01 123.91 95.7362 125.871 91.2069 133.386" stroke="url(#paint19_linear_6873_17503)" stroke-width="0.0761626" stroke-miterlimit="10"/>
<path d="M322.017 -73.4213C324.695 -53.4963 322.775 -34.3842 315.32 -21.077C311.462 -14.1047 305.654 -10.4881 301.412 -4.08403C296.623 3.14613 290.518 8.62016 283.702 13.0244C279.032 16.0448 274.014 18.5515 268.817 20.7343C258.575 25.0348 247.642 28.1241 236.474 29.6448C229.944 30.5338 223.39 30.9693 216.893 31.0701C212.166 31.1437 207.397 31.0857 202.572 30.876C195.653 30.5749 188.516 29.8727 181.624 30.691C179.219 30.9768 176.871 31.456 174.567 32.0617C164.702 34.6024 154.681 37.9845 147.5 44.1807C145.644 45.7821 143.969 47.5595 142.492 49.5472C136.758 57.2623 133.12 67.7438 131.382 79.8097C131.082 81.8727 130.832 83.9997 130.606 86.1639C129.803 93.8888 129.305 102.094 127.954 109.606C127.15 114.089 126.199 118.568 124.097 121.714C122.789 123.675 121.052 124.982 118.872 125.663C116.652 126.357 114.315 126.561 111.859 126.771C103.437 127.448 94.078 129.385 89.3756 136.873" stroke="url(#paint20_linear_6873_17503)" stroke-width="0.0761626" stroke-miterlimit="10"/>
<path d="M321.715 -72.7805C324.764 -52.7826 323.043 -33.5915 315.645 -20.3465C311.732 -13.2625 305.786 -9.68967 301.536 -3.11423C296.75 4.28889 290.648 9.96314 283.801 14.5206C279.111 17.6463 274.057 20.2368 268.8 22.4598C258.443 26.8406 247.302 29.8404 235.845 31.1031C229.146 31.8413 222.395 32.0663 215.682 31.9232C210.792 31.8192 205.855 31.5596 200.866 31.1433C193.707 30.5459 186.334 29.54 179.253 30.1886C176.786 30.4144 174.382 30.8509 172.03 31.4322C161.953 33.8748 151.977 37.6549 144.908 44.3286C143.083 46.0516 141.443 47.9542 140.001 50.0647C134.413 58.2414 130.994 69.1875 129.481 81.6528C129.22 83.7844 129.008 85.9778 128.82 88.2076C128.149 96.1654 127.766 104.579 126.445 112.222C125.66 116.784 124.682 121.292 122.562 124.504C121.243 126.506 119.501 127.869 117.338 128.635C115.122 129.42 112.779 129.728 110.313 130.023C101.864 130.992 92.4196 132.905 87.5437 140.364" stroke="url(#paint21_linear_6873_17503)" stroke-width="0.0761626" stroke-miterlimit="10"/>
<path d="M321.412 -72.1414C324.832 -52.0706 323.311 -32.7996 315.968 -19.6191C312.002 -12.4225 305.918 -8.89323 301.659 -2.14831C296.876 5.42801 290.776 11.302 283.9 16.012C279.188 19.2422 274.098 21.916 268.782 24.1814C258.309 28.6427 246.962 31.5534 235.214 32.5563C228.346 33.1429 221.399 33.1582 214.47 32.7709C209.416 32.4883 204.312 32.0284 199.16 31.4066C191.761 30.513 184.153 29.2039 176.884 29.6818C174.353 29.8488 171.893 30.2423 169.494 30.7994C159.203 33.1443 149.272 37.3212 142.316 44.4731C140.523 46.3167 138.918 48.3443 137.51 50.5789C132.067 59.2174 128.869 70.6277 127.581 83.4923C127.359 85.6913 127.186 87.9523 127.035 90.2475C126.497 98.4384 126.229 107.061 124.939 114.835C124.171 119.476 123.166 124.014 121.029 127.292C119.699 129.335 117.953 130.753 115.807 131.604C113.595 132.48 111.245 132.893 108.77 133.271C100.293 134.532 90.762 136.42 85.7141 143.853" stroke="url(#paint22_linear_6873_17503)" stroke-width="0.0761626" stroke-miterlimit="10"/>
<path d="M321.11 -71.5023C324.902 -51.3576 323.579 -32.0086 316.292 -18.8913C312.272 -11.5829 306.033 -8.11661 301.782 -1.18216C296.984 6.54635 290.904 12.6404 283.998 17.5036C279.265 20.8393 274.139 23.5964 268.764 25.9021C258.175 30.4437 246.621 33.2648 234.584 34.0098C227.547 34.4456 220.403 34.2501 213.258 33.6189C208.041 33.1578 202.77 32.4973 197.454 31.6689C189.814 30.479 181.98 28.8883 174.513 29.1743C171.922 29.2885 169.403 29.6319 166.957 30.1648C156.453 32.4117 146.567 36.9868 139.724 44.6169C137.962 46.5811 136.392 48.7347 135.019 51.0924C129.721 60.1926 126.743 72.0674 125.679 85.3304C125.495 87.597 125.362 89.9261 125.248 92.2863C124.842 100.71 124.69 109.542 123.43 117.447C122.68 122.167 121.648 126.734 119.494 130.078C118.152 132.163 116.402 133.637 114.273 134.571C112.066 135.54 109.709 136.057 107.224 136.52C98.7193 138.072 89.1036 139.936 83.8822 147.341" stroke="url(#paint23_linear_6873_17503)" stroke-width="0.0761626" stroke-miterlimit="10"/>
<path d="M320.808 -70.862C324.971 -50.6441 323.848 -31.2164 316.617 -18.1626C312.542 -10.7414 306.166 -7.31702 301.907 -0.214054C297.112 7.68934 291.033 13.9817 284.097 18.9971C279.343 22.4374 274.181 25.2788 268.747 27.6259C258.042 32.248 246.281 34.9803 233.956 35.4662C226.749 35.7504 219.409 35.3449 212.048 34.4698C206.667 33.8301 201.225 32.9554 195.749 31.9343C187.864 30.4292 179.798 28.5517 172.144 28.6698C169.49 28.724 166.915 29.0246 164.421 29.5333C153.704 31.6824 143.862 36.6546 137.132 44.7628C135.402 46.8477 133.867 49.1266 132.529 51.6087C127.376 61.17 124.619 73.5098 123.78 87.1723C123.634 89.5075 123.54 91.9031 123.463 94.3287C123.191 102.986 123.153 112.026 121.923 120.061C121.191 124.861 120.132 129.457 117.961 132.867C116.607 134.994 114.853 136.523 112.741 137.541C110.538 138.602 108.174 139.221 105.68 139.77C97.1475 141.614 87.4454 143.453 82.0509 150.831" stroke="url(#paint24_linear_6873_17503)" stroke-width="0.0761626" stroke-miterlimit="10"/>
<path d="M320.506 -70.2227C325.039 -49.9318 324.116 -30.4242 316.941 -17.4339C312.813 -9.90086 306.299 -6.51841 302.031 0.753079C297.241 8.83232 291.162 15.322 284.197 20.4907C279.422 24.0362 274.224 26.9614 268.729 29.3487C257.909 34.0514 245.941 36.6939 233.326 36.9219C225.951 37.0552 218.414 36.4381 210.837 35.3201C205.292 34.5017 199.684 33.4276 194.043 32.2002C185.918 30.3999 177.616 28.2164 169.774 28.1659C167.056 28.1603 164.425 28.418 161.884 28.9023C150.954 30.9534 141.155 36.3221 134.54 44.9092C132.841 47.1148 131.34 49.5189 130.038 52.1248C125.028 62.1474 122.493 74.952 121.878 89.013C121.771 91.4156 121.715 93.8788 121.676 96.3699C121.536 105.26 121.614 114.509 120.415 122.675C119.7 127.555 118.615 132.18 116.426 135.655C115.061 137.824 113.303 139.41 111.208 140.511C109.011 141.666 106.639 142.387 104.134 143.02C95.5744 145.156 85.7875 146.97 80.2199 154.32" stroke="url(#paint25_linear_6873_17503)" stroke-width="0.0761626" stroke-miterlimit="10"/>
<path d="M320.203 -69.5839C325.109 -49.2191 324.384 -29.6334 317.265 -16.7064C313.083 -9.06058 306.431 -5.72102 302.154 1.71996C297.368 9.97409 291.291 16.662 284.295 21.983C279.499 25.634 274.265 28.6425 268.712 31.0711C257.776 35.854 245.6 38.4069 232.697 38.3759C225.152 38.3576 217.419 37.5305 209.626 36.1686C203.918 35.1716 198.143 33.8988 192.337 32.463C183.974 30.3683 175.434 27.8781 167.405 27.6596C164.624 27.594 161.936 27.809 159.348 28.2691C148.205 30.2224 138.45 35.9884 131.949 45.0533C130.281 47.3797 128.815 49.9088 127.548 52.6385C122.681 63.1214 120.368 76.3917 119.978 90.8522C119.91 93.3234 119.893 95.8528 119.891 98.4097C119.885 107.533 120.077 116.99 118.909 125.288C118.212 130.247 117.099 134.9 114.893 138.442C113.517 140.652 111.756 142.296 109.677 143.479C107.485 144.727 105.105 145.551 102.591 146.269C94.0033 148.697 84.131 150.487 78.3899 157.808" stroke="url(#paint26_linear_6873_17503)" stroke-width="0.0761626" stroke-miterlimit="10"/>
<path d="M319.901 -68.9431C325.178 -48.5053 324.653 -28.8398 317.589 -15.9772C313.353 -8.21953 306.564 -4.92189 302.278 2.6876C297.496 11.1166 291.419 18.0028 284.393 23.4763C279.576 27.2318 274.307 30.3246 268.694 32.7947C257.641 37.6572 245.259 40.1222 232.066 39.8323C224.353 39.6631 216.418 38.6073 208.414 37.0205C202.54 35.832 196.602 34.3725 190.631 32.7294C182.029 30.3405 173.252 27.5424 165.034 27.1562C162.19 27.0309 159.447 27.2027 156.811 27.6385C145.455 29.4939 135.722 35.6311 129.356 45.2011C127.714 47.6412 126.288 50.3025 125.056 53.1561C120.332 64.1005 118.242 77.8356 118.077 92.6942C118.047 95.233 118.069 97.8307 118.104 100.452C118.231 109.809 118.538 119.474 117.4 127.903C116.72 132.94 115.581 137.624 113.358 141.231C111.97 143.483 110.206 145.183 108.143 146.45C105.958 147.792 103.569 148.718 101.045 149.52C92.4298 152.24 82.4716 154.004 76.5579 161.3" stroke="url(#paint27_linear_6873_17503)" stroke-width="0.0761626" stroke-miterlimit="10"/>
<path d="M319.599 -68.3044C325.246 -47.7935 324.92 -28.049 317.913 -15.2499C313.623 -7.37972 306.697 -4.12377 302.401 3.65425C297.623 12.2582 291.547 19.3417 284.492 24.9684C279.653 28.8294 274.348 32.0055 268.676 34.516C257.507 39.4589 244.918 41.8343 231.436 41.2865C223.554 40.9655 215.424 39.7028 207.202 37.8691C201.166 36.504 195.06 34.843 188.925 32.9934C180.084 30.3101 171.07 27.2053 162.664 26.6504C159.756 26.4641 156.957 26.5941 154.274 27.0056C142.705 28.7631 133.019 35.3022 126.764 45.3456C125.154 47.9083 123.756 50.6871 122.565 53.67C117.959 65.0501 116.117 79.2756 116.176 94.5336C116.186 97.1408 116.245 99.8053 116.318 102.491C116.577 112.081 117.001 121.956 115.892 130.515C115.23 135.631 114.064 140.345 111.823 144.017C110.424 146.312 108.658 148.068 106.61 149.417C104.431 150.852 102.033 151.88 99.5003 152.767C90.8569 155.778 80.8133 157.519 74.7266 164.786" stroke="url(#paint28_linear_6873_17503)" stroke-width="0.0761626" stroke-miterlimit="10"/>
<path d="M319.296 -67.6649C325.315 -47.08 325.188 -27.2575 318.237 -14.5219C313.893 -6.53991 306.83 -3.32589 302.524 4.62088C297.75 13.4006 291.676 20.6813 284.59 26.4605C279.73 30.4258 274.388 33.6857 268.658 36.2381C257.373 41.2615 244.577 43.5471 230.806 42.7402C222.755 42.2686 214.429 40.7981 205.99 38.7173C199.792 37.1766 193.518 35.3142 187.219 33.2562C178.138 30.2787 168.887 26.8668 160.294 26.1432C157.322 25.897 154.467 25.9842 151.737 26.3714C139.955 28.031 130.315 34.9731 124.171 45.4889C122.592 48.1732 121.229 51.0782 120.074 54.184C115.617 66.0333 113.99 80.7146 114.274 96.3722C114.322 99.047 114.421 101.779 114.53 104.53C114.923 114.353 115.461 124.436 114.383 133.127C113.739 138.323 112.545 143.065 110.288 146.804C108.877 149.14 107.109 150.954 105.076 152.385C102.905 153.915 100.497 155.044 97.9548 156.015C89.2836 159.317 79.1551 161.034 72.8949 168.274" stroke="url(#paint29_linear_6873_17503)" stroke-width="0.0761626" stroke-miterlimit="10"/>
<path d="M318.995 -67.0245C325.385 -46.3667 325.457 -26.4643 318.562 -13.7919C314.164 -5.69714 306.963 -2.52601 302.648 5.58929C297.879 14.5439 291.805 22.0229 284.69 27.9553C279.808 32.0261 274.431 35.3693 268.64 37.9622C257.24 43.0659 244.238 45.2627 230.177 44.1972C221.956 43.5738 213.435 41.8966 204.779 39.569C198.418 37.8516 191.976 35.7877 185.512 33.5224C176.193 30.2505 166.704 26.5311 157.923 25.6396C154.888 25.3335 151.977 25.3786 149.2 25.7407C137.204 27.3025 127.612 34.6474 121.578 45.6366C120.032 48.4434 118.705 51.4744 117.582 54.7013C113.274 67.0201 111.864 82.158 112.373 98.2151C112.459 100.958 112.597 103.756 112.744 106.574C113.269 116.629 113.922 126.921 112.875 135.742C112.248 141.017 111.028 145.789 108.753 149.594C107.331 151.972 105.565 153.85 103.543 155.357C101.382 156.988 98.9607 158.211 96.409 159.268C87.7098 162.861 77.496 164.554 71.0627 171.766" stroke="url(#paint30_linear_6873_17503)" stroke-width="0.0761626" stroke-miterlimit="10"/>
<path d="M318.692 -66.3853C325.453 -45.6545 325.725 -25.6731 318.886 -13.0642C314.433 -4.85764 307.096 -1.72866 302.772 6.55635C298.006 15.6859 291.933 23.3631 284.788 29.4479C270.235 41.8424 251.187 47.6485 229.547 45.6516C214.991 44.3082 199.453 39.6225 183.807 33.7856C174.248 30.2195 164.522 26.193 155.553 25.1328C139.065 23.1839 126.282 31.6674 118.987 45.7801C111.692 59.8927 109.547 79.288 110.473 100.054C111.313 118.897 114.418 140.226 107.219 152.38C98.9865 166.279 79.5792 164 69.2326 175.253" stroke="url(#paint31_linear_6873_17503)" stroke-width="0.0761626" stroke-miterlimit="10"/>
<path d="M356.945 66.46C344.058 42.0024 325.839 19.6979 306.438 4.62961C300.919 0.342815 295.095 -3.46775 289.907 -4.23638C274.916 -6.45609 270.7 13.2561 265.64 25.5192C259.534 40.3173 253.819 55.5508 246.39 68.9529C242.22 76.477 236.484 83.7454 226.978 80.7761C217.352 77.7687 207.802 65.5978 198.943 55.2167C188.62 43.1199 177.36 31.9959 165.787 24.9482C154.214 17.9005 142.275 15.3128 134.504 20.339C128.418 24.2753 125.308 32.423 123.078 41.006C117.22 63.5586 116.456 90.6067 120.854 119.671" stroke="url(#paint32_linear_6873_17503)" stroke-width="0.0761626" stroke-miterlimit="10"/>
<path d="M356.75 65.2576C345.361 43.6417 329.523 24.3708 311.758 9.52319C310.108 8.14417 308.451 6.80191 306.784 5.51838C301.308 1.3031 295.545 -2.45371 290.403 -3.26297C275.527 -5.61155 271.081 13.2504 265.874 25.2061C261.257 35.8058 256.915 46.7838 251.89 57.1609C250.151 60.7707 248.34 64.3025 246.419 67.719C242.254 75.1292 236.582 82.3049 227.264 79.5769C217.829 76.8141 208.469 65.1861 199.775 55.2847C189.644 43.748 178.601 33.1447 167.239 26.4635C163.283 24.1375 159.281 22.3321 155.42 21.1754C148.193 19.0087 141.452 19.1104 136.414 22.3198C130.362 26.1749 127.174 34.0746 124.826 42.3545C120.067 59.1087 118.196 78.2843 119.306 99.0612C119.637 105.261 120.233 111.602 121.1 118.064" stroke="url(#paint33_linear_6873_17503)" stroke-width="0.0761626" stroke-miterlimit="10"/>
<path d="M356.555 64.0557C345.546 43.1603 330.089 25.1564 312.059 10.3368C310.422 8.99209 308.781 7.66914 307.131 6.40851C301.697 2.26593 295.996 -1.43829 290.898 -2.28892C276.135 -4.76709 271.464 13.245 266.108 24.8943C261.403 35.1273 257.027 45.8746 251.929 56.1046C250.182 59.6488 248.367 63.1224 246.449 66.4865C242.288 73.7836 236.68 80.8661 227.551 78.379C218.307 75.8599 209.137 64.7748 200.609 55.3538C190.67 44.377 179.842 34.2948 168.691 27.981C164.809 25.7832 160.88 24.0855 157.085 23.0121C149.982 20.9986 143.336 21.1604 138.326 24.3025C132.308 28.0773 129.042 35.7279 126.574 43.7039C121.569 59.8422 119.318 78.158 119.975 98.1409C120.171 104.104 120.626 110.213 121.347 116.458" stroke="url(#paint34_linear_6873_17503)" stroke-width="0.0761626" stroke-miterlimit="10"/>
<path d="M356.361 62.8527C345.731 42.678 330.658 25.9398 312.361 11.1493C310.737 9.83678 309.113 8.53411 307.478 7.29734C302.088 3.22627 296.448 -0.422995 291.396 -1.31546C276.747 -3.9225 271.85 13.2392 266.343 24.5812C261.553 34.4478 257.114 44.934 251.97 55.0477C250.206 58.517 248.397 61.9417 246.48 65.2537C242.324 72.4367 236.78 79.4268 227.84 77.1806C218.786 74.9051 209.808 64.3639 201.444 55.4225C191.697 45.0058 181.086 35.4443 170.146 29.4968C166.336 27.4276 162.48 25.8374 158.751 24.8462C151.773 22.9862 145.223 23.2077 140.24 26.2838C134.255 29.9784 130.911 37.3799 128.324 45.052C123.071 60.5755 120.441 78.0304 120.646 97.2203C120.707 102.946 121.02 108.824 121.597 114.852" stroke="url(#paint35_linear_6873_17503)" stroke-width="0.0761626" stroke-miterlimit="10"/>
<path d="M356.166 61.6514C345.916 42.1972 331.229 26.7218 312.662 11.9637C311.052 10.6844 309.442 9.40128 307.824 8.18836C302.477 4.18999 296.898 0.593307 291.891 -0.340757C277.357 -3.07666 272.237 13.2362 266.576 24.2703C261.702 33.772 257.217 44.0163 252.009 53.9922C250.234 57.3935 248.424 60.7622 246.509 64.0221C242.358 71.092 236.879 77.9896 228.126 75.9836C219.263 73.9528 210.476 63.9544 202.277 55.4927C192.72 45.6362 182.326 36.5944 171.597 31.0144C167.86 29.0725 164.078 27.5907 160.413 26.6821C153.56 24.9763 147.106 25.2577 142.149 28.2659C136.198 31.8795 132.776 39.0328 130.07 46.4009C124.57 61.3084 121.561 77.9036 121.312 96.2997C121.238 101.789 121.409 107.434 121.841 113.245" stroke="url(#paint36_linear_6873_17503)" stroke-width="0.0761626" stroke-miterlimit="10"/>
<path d="M355.971 60.449C346.101 41.7153 331.801 27.5008 312.963 12.7768C311.366 11.5295 309.773 10.268 308.171 9.07777C302.867 5.15091 297.348 1.60822 292.388 0.633523C277.967 -2.23124 272.626 13.2329 266.811 23.959C261.856 33.0981 257.322 43.0987 252.049 52.9371C250.263 56.2703 248.453 59.5833 246.54 62.7908C242.394 69.7467 236.979 76.5519 228.414 74.787C219.742 72.9998 211.146 63.545 203.111 55.5633C193.746 46.2656 183.569 37.7457 173.051 32.5333C169.387 30.7196 165.677 29.3456 162.078 28.5192C155.35 26.9667 148.99 27.3082 144.063 30.25C138.145 33.7834 134.645 40.6885 131.821 47.7527C126.074 62.0452 122.684 77.7797 121.983 95.3828C121.774 100.635 121.804 106.049 122.091 111.642" stroke="url(#paint37_linear_6873_17503)" stroke-width="0.0761626" stroke-miterlimit="10"/>
<path d="M355.776 59.2459C346.286 41.2327 332.376 28.2748 313.264 13.5883C311.682 12.3727 310.103 11.132 308.517 9.9658C303.257 6.11141 297.799 2.62152 292.884 1.60522C278.577 -1.38817 273.018 13.2274 267.044 23.6441C262.011 32.4219 257.426 42.1777 252.088 51.8776C250.291 55.1429 248.479 58.4001 246.569 61.5543C242.427 68.3971 237.076 75.1088 228.699 73.585C220.218 72.0415 211.814 63.1306 203.943 55.6286C194.77 46.891 184.808 38.8918 174.501 34.0459C170.911 32.3606 167.274 31.094 163.741 30.3511C157.137 28.9521 150.873 29.3532 145.972 32.2281C140.088 35.6813 136.51 42.3375 133.567 49.0975C127.572 62.7741 123.803 77.6489 122.65 94.4579C122.305 99.4739 122.193 104.656 122.336 110.031" stroke="url(#paint38_linear_6873_17503)" stroke-width="0.0761626" stroke-miterlimit="10"/>
<path d="M355.582 58.0447C346.47 40.7523 332.952 29.0489 313.565 14.4029C311.996 13.218 310.433 11.9992 308.864 10.8567C303.646 7.07405 298.249 3.63794 293.38 2.581C279.186 -0.542224 273.412 13.2283 267.279 23.334C262.169 31.752 257.533 41.2621 252.128 50.824C250.321 54.0221 248.507 57.2217 246.599 60.3245C242.462 67.0533 237.175 73.6726 228.987 72.3899C220.697 71.091 212.482 62.722 204.778 55.7003C195.796 47.5227 186.051 40.0443 175.956 35.5658C172.439 34.0078 168.874 32.8498 165.407 32.1893C158.928 30.9435 152.759 31.4054 147.885 34.2134C142.035 37.5854 138.379 43.9935 135.316 50.4499C129.075 63.5114 124.926 77.5256 123.319 93.5418C122.84 98.3209 122.586 103.271 122.583 108.429" stroke="url(#paint39_linear_6873_17503)" stroke-width="0.0761626" stroke-miterlimit="10"/>
<path d="M355.387 56.8419C346.655 40.2699 333.53 29.817 313.866 15.2155C312.312 14.0612 310.765 12.8653 309.21 11.7459C304.036 8.03573 298.7 4.65337 293.876 3.55483C279.797 0.302741 273.81 13.2274 267.513 23.0213C262.331 31.0817 257.639 40.344 252.168 49.7665C250.35 52.8964 248.535 56.0404 246.629 59.0911C242.497 65.7068 237.274 72.2326 229.275 71.1921C221.175 70.1368 213.152 62.3116 205.611 55.7697C196.821 48.1521 187.293 41.1947 177.408 37.0826C173.964 35.6528 170.473 34.6023 167.071 34.0243C160.717 32.9327 154.643 33.4536 149.797 36.1956C143.98 39.4873 140.246 45.6463 137.064 51.7998C130.576 64.2454 126.047 77.3998 123.988 92.622C123.373 97.1645 122.977 101.882 122.831 106.824" stroke="url(#paint40_linear_6873_17503)" stroke-width="0.0761626" stroke-miterlimit="10"/>
<path d="M355.192 55.6391C346.84 39.7877 334.109 30.5813 314.167 16.0283C312.627 14.9045 311.094 13.7308 309.557 12.635C304.425 8.99654 299.15 5.66796 294.373 4.52759C280.407 1.14688 274.209 13.228 267.747 22.7085C262.495 30.4136 257.747 39.4275 252.208 48.71C250.38 51.7738 248.563 54.8601 246.659 57.8585C242.532 64.3602 237.373 70.7936 229.562 69.9941C221.653 69.1825 213.821 61.9012 206.445 55.839C197.846 48.7815 188.535 42.3448 178.861 38.6001C175.491 37.2987 172.071 36.3559 168.735 35.8601C162.505 34.922 156.528 35.5038 151.709 38.1774C145.926 41.388 142.113 47.299 138.813 53.1484C132.078 64.979 127.169 77.2727 124.658 91.7018C123.908 96.0075 123.37 100.493 123.079 105.217" stroke="url(#paint41_linear_6873_17503)" stroke-width="0.0761626" stroke-miterlimit="10"/>
<path d="M354.998 54.4376C347.026 39.3067 334.69 31.3439 314.468 16.8416C312.942 15.7471 311.425 14.5965 309.903 13.5239C304.814 9.95791 299.6 6.68214 294.868 5.50136C281.016 1.99178 274.611 13.2306 267.98 22.3957C262.66 29.748 257.853 38.5109 252.246 47.6527C250.408 50.6491 248.589 53.679 246.688 56.625C242.565 63.0136 237.47 69.3535 229.847 68.7952C222.129 68.2273 214.488 61.4898 207.277 55.9073C198.87 49.4097 189.774 43.4939 180.311 40.1158C177.014 38.9417 173.667 38.1066 170.397 37.6941C164.292 36.9092 158.41 37.5509 153.618 40.1586C147.868 43.2891 143.979 48.9508 140.558 54.4963C133.576 65.7109 128.288 77.144 125.323 90.7803C124.438 94.8491 123.758 99.1032 123.323 103.61" stroke="url(#paint42_linear_6873_17503)" stroke-width="0.0761626" stroke-miterlimit="10"/>
<path d="M354.803 53.2348C347.21 38.8244 335.272 32.1001 314.769 17.6543C313.258 16.5892 311.755 15.4629 310.249 14.4129C305.204 10.9187 300.051 7.6967 295.364 6.47409C281.627 2.83565 275.017 13.2356 268.214 22.0828C262.831 29.0845 257.962 37.5941 252.286 46.596C250.439 49.5261 248.617 52.4985 246.718 55.3922C242.601 61.6667 237.57 67.9153 230.136 67.5968C222.609 67.2735 215.158 61.0777 208.113 55.977C199.897 50.0385 191.018 44.6444 181.766 41.6327C178.542 40.5868 175.268 39.8593 172.064 39.5302C166.084 38.8986 160.297 39.6001 155.532 42.1409C149.816 45.1912 145.848 50.604 142.309 55.8463C135.08 66.4459 129.412 77.0183 125.994 89.8606C124.974 93.6928 124.153 97.715 123.572 102.004" stroke="url(#paint43_linear_6873_17503)" stroke-width="0.0761626" stroke-miterlimit="10"/>
<path d="M354.608 52.0334C347.395 38.3437 335.854 32.8527 315.071 18.4684C313.574 17.4324 312.086 16.3261 310.596 15.3036C305.595 11.8711 300.502 8.71357 295.861 7.44937C282.237 3.68109 275.426 13.2446 268.449 21.7722C263.005 28.4269 258.072 36.6816 252.327 45.5409C250.47 48.4046 248.646 51.3184 246.748 54.1602C242.636 60.3217 237.669 66.4766 230.423 66.3994C223.086 66.3198 215.827 60.6678 208.946 56.0466C200.922 50.6682 192.26 45.7948 183.219 43.1506C180.069 42.233 176.867 41.6132 173.728 41.3664C167.873 40.8892 162.181 41.6506 157.444 44.124C151.762 47.0932 147.716 52.2577 144.058 57.1963C136.582 67.1799 130.534 76.8926 126.665 88.9418C125.509 92.5372 124.546 96.3277 123.821 100.4" stroke="url(#paint44_linear_6873_17503)" stroke-width="0.0761626" stroke-miterlimit="10"/>
<path d="M354.413 50.8301C347.58 37.861 336.438 33.5985 315.372 19.2809C313.889 18.273 312.417 17.192 310.943 16.1924C305.984 12.8314 300.952 9.7279 296.356 8.4221C282.846 4.5252 275.838 13.2551 268.682 21.4584C263.179 27.7683 258.18 35.7658 252.366 44.4832C250.501 47.2803 248.673 50.137 246.778 52.9264C242.67 58.9738 237.768 65.0365 230.71 65.2002C223.564 65.3643 216.495 60.2562 209.779 56.1146C201.947 51.2961 193.501 46.9435 184.671 44.666C181.593 43.876 178.465 43.3643 175.391 43.2003C169.66 42.8763 164.064 43.6976 159.354 46.1041C153.705 48.993 149.581 53.9085 145.804 58.5431C138.082 67.9117 131.653 76.7638 127.33 88.0192C126.04 91.378 124.935 94.9366 124.065 98.7913" stroke="url(#paint45_linear_6873_17503)" stroke-width="0.0761626" stroke-miterlimit="10"/>
<path d="M354.218 49.6279C347.765 37.3792 337.022 34.3402 315.673 20.0941C314.205 19.1144 312.747 18.058 311.289 17.0822C306.373 13.7927 301.403 10.743 296.853 9.39655C283.457 5.37078 276.253 13.2698 268.917 21.1472C263.358 27.1159 258.291 34.8532 252.405 43.4275C250.531 46.1583 248.701 48.9575 246.808 51.6945C242.705 57.6289 237.867 63.598 230.996 64.003C224.042 64.4117 217.164 59.8464 210.613 56.1846C202.972 51.9262 194.742 48.0945 186.124 46.1843C183.119 45.5225 180.063 45.1186 177.055 45.0368C171.449 44.8661 165.948 45.7473 161.266 48.0878C155.651 50.8965 151.448 55.5631 147.552 59.8948C139.582 68.6475 132.774 76.6398 127.999 87.1022C126.573 90.2241 125.327 93.5511 124.313 97.188" stroke="url(#paint46_linear_6873_17503)" stroke-width="0.0761626" stroke-miterlimit="10"/>
<path d="M354.024 48.4259C347.95 36.8978 337.607 35.0763 315.975 20.9068C314.521 19.9549 313.078 18.9231 311.636 17.9711C306.764 14.7531 301.853 11.7574 297.349 10.3694C284.067 6.21476 276.673 13.287 269.15 20.8335C263.539 26.4634 258.401 33.9392 252.445 42.3702C250.561 45.0356 248.728 47.7764 246.838 50.461C242.739 56.2814 237.965 62.1582 231.283 62.8042C224.519 63.4565 217.832 59.4342 211.446 56.2529C203.997 52.5544 195.984 49.2437 187.576 47.6998C184.645 47.1663 181.662 46.8699 178.719 46.8716C173.238 46.8544 167.833 47.7964 163.178 50.0695C157.597 52.797 153.316 57.2154 149.301 61.2433C141.085 69.3809 133.897 76.5126 128.669 86.1809C127.107 89.0653 125.719 92.1604 124.56 95.5807" stroke="url(#paint47_linear_6873_17503)" stroke-width="0.0761626" stroke-miterlimit="10"/>
<path d="M353.829 47.2227C348.135 36.4154 338.191 35.8051 316.275 21.7193C314.836 20.7944 313.407 19.7883 311.982 18.8603C307.153 15.715 302.306 12.7838 297.845 11.3432C284.683 7.09345 277.095 13.3097 269.384 20.5217C263.723 25.8174 258.512 33.0278 252.484 41.3136C250.592 43.9133 248.756 46.596 246.868 49.2283C242.774 54.9355 238.064 60.7188 231.57 61.6061C224.996 62.5023 218.501 59.0235 212.28 56.3217C205.022 53.1834 197.226 50.3933 189.029 49.2169C186.171 48.8108 183.261 48.623 180.384 48.707C175.028 48.844 169.717 49.8449 165.09 52.0512C159.542 54.6987 155.183 58.8679 151.049 62.5917C142.585 70.1133 135.018 76.3853 129.337 85.2608C127.641 87.9084 126.111 90.7719 124.807 93.9755" stroke="url(#paint48_linear_6873_17503)" stroke-width="0.0761626" stroke-miterlimit="10"/>
<path d="M353.635 46.0214C348.32 35.9346 338.777 36.5301 316.577 22.5335C315.153 21.6356 313.739 20.6562 312.33 19.7508C307.544 16.677 302.758 13.7996 298.342 12.3183C285.295 7.9388 277.522 13.3374 269.621 20.211C263.913 25.1759 258.627 32.1186 252.526 40.2593C250.627 42.7944 248.786 45.4179 246.899 47.9981C242.811 53.5913 238.165 59.2822 231.86 60.4115C225.477 61.5523 219.173 58.6162 213.116 56.3944C206.05 53.8161 198.47 51.5467 190.484 50.7369C187.699 50.4591 184.861 50.379 182.05 50.5453C176.818 50.8355 171.604 51.8973 167.003 54.0366C161.489 56.6029 157.053 60.525 152.8 63.9449C144.089 70.8515 136.141 76.263 130.008 84.3443C128.176 86.7553 126.505 89.3866 125.057 92.3727" stroke="url(#paint49_linear_6873_17503)" stroke-width="0.0761626" stroke-miterlimit="10"/>
<path d="M353.44 44.8188C348.504 35.4515 339.362 37.2476 316.878 23.3467C315.468 22.4755 314.068 21.5218 312.675 20.6405C307.932 17.6394 303.207 14.8148 298.837 13.2919C285.903 8.78377 277.95 13.3698 269.852 19.8981C264.101 24.5357 258.738 31.208 252.564 39.2016C250.656 41.672 248.811 44.2354 246.927 46.7642C242.844 52.2444 238.262 57.8427 232.145 59.2122C225.953 60.5967 219.84 58.2045 213.948 56.4623C207.072 54.4429 199.709 52.6945 191.934 52.2522C189.222 52.1027 186.458 52.13 183.712 52.3789C178.604 52.8226 173.485 53.9442 168.912 56.0164C163.431 58.5025 158.917 62.1754 154.545 65.2914C145.587 71.5821 137.259 76.1329 130.674 83.4221C128.707 85.5962 126.894 87.996 125.301 90.7645" stroke="url(#paint50_linear_6873_17503)" stroke-width="0.0761626" stroke-miterlimit="10"/>
<path d="M353.245 43.6163C348.69 34.9695 339.946 37.9575 317.179 24.1587C315.783 23.3132 314.399 22.3875 313.022 21.5288C308.322 18.5993 303.657 15.8284 299.334 14.2649C286.513 9.62691 278.384 13.4062 270.087 19.5854C264.294 23.8997 258.853 30.2995 252.604 38.1453C250.689 40.5511 248.84 43.0554 246.958 45.5309C242.879 50.897 238.361 56.403 232.433 58.0135C226.431 59.6417 220.509 57.7923 214.781 56.5308C208.098 55.0715 200.951 53.8437 193.388 53.7688C190.749 53.7466 188.057 53.8826 185.377 54.2146C180.395 54.8116 175.371 55.9931 170.826 57.9991C165.379 60.405 160.786 63.829 156.295 66.6409C147.09 72.3166 138.383 76.0067 131.344 82.5021C129.242 84.4395 127.287 86.6075 125.549 89.1585" stroke="url(#paint51_linear_6873_17503)" stroke-width="0.0761626" stroke-miterlimit="10"/>
<path d="M353.051 42.4145C348.874 34.4884 340.531 38.6609 317.48 24.9724C316.1 24.1527 314.729 23.2539 313.369 22.4191C308.712 19.5622 304.108 16.8442 299.83 15.2388C287.123 10.4713 278.821 13.45 270.321 19.2728C264.489 23.2674 258.967 29.3909 252.643 37.0882C250.72 39.4292 248.868 41.8742 246.987 44.2976C242.913 49.5506 238.459 54.9633 232.72 56.8146C226.909 58.6874 221.178 57.3808 215.615 56.599C209.122 55.6999 202.192 54.993 194.84 55.2844C192.275 55.3905 189.655 55.634 187.041 56.0486C182.183 56.7997 177.255 58.0411 172.736 59.9793C167.323 62.3039 162.653 65.4798 158.043 67.9888C148.591 73.0485 139.503 75.8789 132.012 81.5803C129.775 83.281 127.679 85.2172 125.796 87.5504" stroke="url(#paint52_linear_6873_17503)" stroke-width="0.0761626" stroke-miterlimit="10"/>
<path d="M352.855 41.2113C349.059 34.0058 341.114 39.3563 317.781 25.785C316.414 24.9898 315.059 24.1189 313.715 23.308C309.101 20.5238 304.557 17.8483 300.326 16.2126C287.728 11.2843 279.262 13.5004 270.555 18.961C264.686 22.6406 259.082 28.4839 252.683 36.0325C250.753 38.3099 248.896 40.6948 247.017 43.0658C242.948 48.2048 238.559 53.5249 233.007 55.6175C227.387 57.7339 221.847 56.9712 216.449 56.6688C210.149 56.3296 203.435 56.1436 196.293 56.8026C193.801 57.0369 191.254 57.3881 188.706 57.885C183.973 58.7896 179.14 60.0907 174.649 61.9629C169.268 64.2075 164.52 67.1343 159.791 69.3394C150.092 73.7841 140.625 75.7538 132.681 80.6622C130.309 82.126 128.07 83.8296 126.044 85.9471" stroke="url(#paint53_linear_6873_17503)" stroke-width="0.0761626" stroke-miterlimit="10"/>
<path d="M352.661 40.0094C349.245 33.5243 341.698 40.045 318.083 26.5986C316.731 25.8292 315.391 24.9862 314.062 24.1981C309.491 21.4867 305.008 18.864 300.822 17.1865C288.338 12.1283 279.707 13.5576 270.79 18.649C264.888 22.0185 259.2 27.5787 252.724 34.976C250.786 37.1897 248.924 39.5144 247.048 41.8333C242.984 46.8592 238.658 52.0861 233.294 54.4196C227.865 56.7797 222.516 56.5609 217.283 56.7382C211.174 56.959 204.677 57.2937 197.746 58.3193C195.326 58.6812 192.853 59.1396 190.37 59.72C185.761 60.7779 181.023 62.1391 176.561 63.9448C171.214 66.1092 166.388 68.7868 161.539 70.6881C151.594 74.5168 141.747 75.6269 133.35 79.7414C130.842 80.9687 128.462 82.4404 126.291 84.3401" stroke="url(#paint54_linear_6873_17503)" stroke-width="0.0761626" stroke-miterlimit="10"/>
<path d="M352.466 38.8075C349.429 33.0429 342.279 40.7251 318.383 27.4112C317.046 26.6663 315.72 25.8515 314.408 25.0871C309.88 22.4483 305.458 19.8782 301.318 18.1603C288.948 12.9733 280.154 13.6227 271.023 18.3363C265.088 21.3998 259.315 26.6727 252.763 33.9196C250.818 36.0696 248.951 38.3333 247.077 40.6008C243.017 45.5127 238.756 50.647 233.581 53.2218C228.343 55.8265 223.184 56.1493 218.116 56.8075C212.198 57.5885 205.918 58.4439 199.198 59.8367C196.852 60.3269 194.451 60.8931 192.034 61.5566C187.55 62.768 182.908 64.1898 178.472 65.9277C173.159 68.0109 168.255 70.4404 163.287 72.0377C153.095 75.2515 142.868 75.5008 134.019 78.8223C131.376 79.8128 128.854 81.0528 126.538 82.7349" stroke="url(#paint55_linear_6873_17503)" stroke-width="0.0761626" stroke-miterlimit="10"/>
<path d="M352.272 37.6042C349.614 32.5601 342.861 41.3957 318.684 28.2237C317.361 27.5024 316.05 26.72 314.754 25.9761C310.27 23.4194 305.908 20.8928 301.814 19.1339C289.558 13.8183 280.607 13.6954 271.257 18.0243C265.292 20.7856 259.433 25.7704 252.803 32.8629C250.852 34.9499 248.979 37.1528 247.107 39.368C243.053 44.1668 238.855 49.2077 233.868 52.0235C228.821 54.8719 223.853 55.7386 218.95 56.8765C213.223 58.2163 207.159 59.5936 200.651 61.353C198.378 61.9715 196.049 62.6454 193.698 63.3912C189.339 64.7568 184.792 66.2375 180.384 67.9094C175.104 69.9124 170.122 72.093 165.036 73.3872C154.596 75.985 143.99 75.3747 134.688 77.9021C131.909 78.656 129.246 79.6641 126.784 81.1287" stroke="url(#paint56_linear_6873_17503)" stroke-width="0.0761626" stroke-miterlimit="10"/>
<path d="M352.077 36.4022C349.799 32.0789 343.44 42.059 318.986 29.0372C317.677 28.3405 316.382 27.587 315.101 26.865C310.66 24.3808 306.359 21.9079 302.31 20.1065C290.168 14.662 281.062 13.7763 271.491 17.7103C265.496 20.1747 259.551 24.866 252.842 31.8053C250.884 33.8296 249.006 35.9715 247.137 38.1333C243.086 42.818 238.954 47.7674 234.154 50.8235C229.298 53.9155 224.521 55.326 219.782 56.9436C214.247 58.8436 208.4 60.7415 202.102 62.8675C199.902 63.6134 197.647 64.3956 195.361 65.224C191.127 66.7428 186.675 68.2846 182.293 69.8884C177.048 71.8112 171.987 73.7426 166.782 74.733C156.095 76.7157 145.109 75.2447 135.354 76.9794C132.441 77.4964 129.636 78.2729 127.03 79.5206" stroke="url(#paint57_linear_6873_17503)" stroke-width="0.0761626" stroke-miterlimit="10"/>
<path d="M351.882 35.1994C349.984 31.5966 344.018 42.7128 319.287 29.85C317.993 29.1768 316.712 28.4525 315.447 27.7543C311.049 25.3418 306.81 22.9227 302.806 21.0807C290.778 15.5073 281.52 13.867 271.725 17.3989C265.702 19.5707 259.67 23.9661 252.882 30.7491C250.918 32.7116 249.034 34.7915 247.166 36.9012C243.121 41.4728 239.052 46.3289 234.442 49.6269C229.776 52.9626 225.19 54.917 220.617 57.014C215.274 59.4739 209.643 61.8927 203.555 64.3863C201.429 65.2604 199.246 66.1504 197.026 67.061C192.916 68.7333 188.56 70.3348 184.206 71.8724C178.994 73.7139 173.856 75.3975 168.531 76.0837C157.598 77.4505 146.231 75.1188 136.024 76.0604C132.976 76.3406 130.029 76.8855 127.278 77.9156" stroke="url(#paint58_linear_6873_17503)" stroke-width="0.0761626" stroke-miterlimit="10"/>
<path d="M351.688 33.998C350.169 31.1157 344.595 43.3579 319.589 30.6642C318.308 30.0145 317.042 29.3194 315.794 28.6449C311.439 26.3049 307.261 23.9386 303.303 22.055C291.388 16.3518 281.981 13.9672 271.96 17.0874C265.91 18.9709 259.791 23.0668 252.922 29.694C250.953 31.5944 249.063 33.6125 247.197 35.6699C243.157 40.1275 239.152 44.891 234.73 48.4303C230.255 52.0106 225.86 54.5069 221.451 57.0846C216.299 60.1045 210.885 63.0443 205.009 65.9042C202.956 66.9066 200.845 67.904 198.69 68.8974C194.705 70.723 190.444 72.3843 186.118 73.855C180.939 75.6166 175.723 77.0507 170.279 77.4341C159.099 78.1858 147.353 74.9935 136.693 75.1411C133.509 75.1846 130.42 75.4976 127.525 76.3102" stroke="url(#paint59_linear_6873_17503)" stroke-width="0.0761626" stroke-miterlimit="10"/>
<path d="M351.493 32.7957C350.354 30.634 345.168 43.9929 319.889 31.4766C318.623 30.8495 317.373 30.1852 316.14 29.5338C311.828 27.2655 307.71 24.953 303.799 23.0285C291.998 17.1967 282.444 14.0762 272.193 16.7743C266.117 18.3739 259.912 22.168 252.961 28.6364C250.985 30.4751 249.09 32.43 247.226 34.4361C243.191 38.7807 239.25 43.4508 235.017 47.2309C230.732 51.0549 226.528 54.095 222.284 57.1524C217.324 60.7324 212.126 64.1929 206.462 67.4201C204.482 68.5498 202.444 69.656 200.355 70.7326C196.495 72.7124 192.329 74.4338 188.03 75.8374C182.885 77.5177 177.591 78.7037 172.028 78.7835C160.601 78.9202 148.474 74.8672 137.361 74.2219C134.043 74.0287 130.812 74.109 127.772 74.7048" stroke="url(#paint60_linear_6873_17503)" stroke-width="0.0761626" stroke-miterlimit="10"/>
<path d="M351.298 31.593C350.538 30.152 345.74 44.6175 320.191 32.2894C318.938 31.6846 317.703 31.0507 316.487 30.4229C312.218 28.2271 308.162 25.9683 304.295 24.0015C292.608 18.0408 282.909 14.1943 272.427 16.4617C266.325 17.7819 260.033 21.2718 253.001 27.58C251.02 29.3576 249.118 31.2498 247.257 33.2036C243.226 37.4341 239.35 42.0117 235.304 46.033C231.21 50.1006 227.198 53.6846 223.118 57.2217C218.35 61.3616 213.368 65.343 207.914 68.9368C206.008 70.1948 204.043 71.4084 202.019 72.5676C198.283 74.7008 194.213 76.4819 189.942 77.8193C184.831 79.4194 179.458 80.3565 173.776 80.1321C162.102 79.6529 149.596 74.7401 138.03 73.3008C134.576 72.871 131.204 72.7195 128.02 73.0986" stroke="url(#paint61_linear_6873_17503)" stroke-width="0.0761626" stroke-miterlimit="10"/>
<path d="M351.103 30.3915C350.724 29.671 346.31 45.2326 320.492 33.1036C319.253 32.5215 318.034 31.9183 316.833 31.3137C312.608 29.1894 308.611 26.9846 304.791 24.977C293.219 18.8874 283.376 14.3248 272.661 16.1506C266.532 17.1952 260.166 20.3944 253.04 26.5243C251.056 28.2457 249.145 30.0703 247.286 31.9718C243.26 36.0892 239.448 40.5735 235.591 44.8358C231.688 49.1481 227.866 53.2747 223.951 57.2917C219.374 61.9917 214.609 66.4937 209.366 70.4551C207.533 71.8414 205.641 73.1627 203.682 74.4041C200.071 76.6906 196.097 78.5316 191.853 79.802C186.775 81.3219 181.325 82.0109 175.524 81.4826C163.603 80.3884 150.717 74.615 138.699 72.3826C135.11 71.7159 131.595 71.3328 128.267 71.4941" stroke="url(#paint62_linear_6873_17503)" stroke-width="0.0761626" stroke-miterlimit="10"/>
<path d="M350.909 29.1882C350.909 29.1882 346.877 45.8363 320.793 33.9159C294.709 21.9954 278.495 4.34131 253.08 25.4673C235.518 40.0665 223.956 63.2137 205.347 76.2383C197.691 81.597 188.142 84.3581 177.273 82.8307C165.104 81.1205 151.839 74.4874 139.367 71.4613C135.643 70.558 131.988 69.9427 128.514 69.8867" stroke="url(#paint63_linear_6873_17503)" stroke-width="0.0761626" stroke-miterlimit="10"/>
</g>
<defs>
<linearGradient id="paint0_linear_6873_17503" x1="211.176" y1="-39.253" x2="243.47" y2="41.1292" gradientUnits="userSpaceOnUse">
<stop stop-color="#A7F950"/>
<stop offset="1" stop-color="#00F0FF"/>
</linearGradient>
<linearGradient id="paint1_linear_6873_17503" x1="209.618" y1="-38.1081" x2="241.12" y2="40.3022" gradientUnits="userSpaceOnUse">
<stop stop-color="#A7F950"/>
<stop offset="1" stop-color="#00F0FF"/>
</linearGradient>
<linearGradient id="paint2_linear_6873_17503" x1="208.059" y1="-36.9644" x2="239.023" y2="40.105" gradientUnits="userSpaceOnUse">
<stop stop-color="#A7F950"/>
<stop offset="1" stop-color="#00F0FF"/>
</linearGradient>
<linearGradient id="paint3_linear_6873_17503" x1="206.502" y1="-35.8212" x2="238.074" y2="42.763" gradientUnits="userSpaceOnUse">
<stop stop-color="#A7F950"/>
<stop offset="1" stop-color="#00F0FF"/>
</linearGradient>
<linearGradient id="paint4_linear_6873_17503" x1="204.944" y1="-34.6761" x2="237.127" y2="45.4264" gradientUnits="userSpaceOnUse">
<stop stop-color="#A7F950"/>
<stop offset="1" stop-color="#00F0FF"/>
</linearGradient>
<linearGradient id="paint5_linear_6873_17503" x1="203.386" y1="-33.5325" x2="236.179" y2="48.09" gradientUnits="userSpaceOnUse">
<stop stop-color="#A7F950"/>
<stop offset="1" stop-color="#00F0FF"/>
</linearGradient>
<linearGradient id="paint6_linear_6873_17503" x1="201.828" y1="-32.3874" x2="235.233" y2="50.757" gradientUnits="userSpaceOnUse">
<stop stop-color="#A7F950"/>
<stop offset="1" stop-color="#00F0FF"/>
</linearGradient>
<linearGradient id="paint7_linear_6873_17503" x1="200.27" y1="-31.2436" x2="234.286" y2="53.4254" gradientUnits="userSpaceOnUse">
<stop stop-color="#A7F950"/>
<stop offset="1" stop-color="#00F0FF"/>
</linearGradient>
<linearGradient id="paint8_linear_6873_17503" x1="198.712" y1="-30.1005" x2="233.345" y2="56.1014" gradientUnits="userSpaceOnUse">
<stop stop-color="#A7F950"/>
<stop offset="1" stop-color="#00F0FF"/>
</linearGradient>
<linearGradient id="paint9_linear_6873_17503" x1="197.153" y1="-28.955" x2="232.402" y2="58.7789" gradientUnits="userSpaceOnUse">
<stop stop-color="#A7F950"/>
<stop offset="1" stop-color="#00F0FF"/>
</linearGradient>
<linearGradient id="paint10_linear_6873_17503" x1="195.596" y1="-27.8111" x2="231.462" y2="61.4621" gradientUnits="userSpaceOnUse">
<stop stop-color="#A7F950"/>
<stop offset="1" stop-color="#00F0FF"/>
</linearGradient>
<linearGradient id="paint11_linear_6873_17503" x1="194.037" y1="-26.6681" x2="230.523" y2="64.1456" gradientUnits="userSpaceOnUse">
<stop stop-color="#A7F950"/>
<stop offset="1" stop-color="#00F0FF"/>
</linearGradient>
<linearGradient id="paint12_linear_6873_17503" x1="192.479" y1="-25.5224" x2="229.587" y2="66.8412" gradientUnits="userSpaceOnUse">
<stop stop-color="#A7F950"/>
<stop offset="1" stop-color="#00F0FF"/>
</linearGradient>
<linearGradient id="paint13_linear_6873_17503" x1="190.922" y1="-24.3791" x2="228.653" y2="69.5337" gradientUnits="userSpaceOnUse">
<stop stop-color="#A7F950"/>
<stop offset="1" stop-color="#00F0FF"/>
</linearGradient>
<linearGradient id="paint14_linear_6873_17503" x1="189.363" y1="-23.2354" x2="227.719" y2="72.2343" gradientUnits="userSpaceOnUse">
<stop stop-color="#A7F950"/>
<stop offset="1" stop-color="#00F0FF"/>
</linearGradient>
<linearGradient id="paint15_linear_6873_17503" x1="187.806" y1="-22.0905" x2="226.79" y2="74.9437" gradientUnits="userSpaceOnUse">
<stop stop-color="#A7F950"/>
<stop offset="1" stop-color="#00F0FF"/>
</linearGradient>
<linearGradient id="paint16_linear_6873_17503" x1="186.247" y1="-20.9467" x2="225.862" y2="77.6557" gradientUnits="userSpaceOnUse">
<stop stop-color="#A7F950"/>
<stop offset="1" stop-color="#00F0FF"/>
</linearGradient>
<linearGradient id="paint17_linear_6873_17503" x1="184.689" y1="-19.8027" x2="224.938" y2="80.3782" gradientUnits="userSpaceOnUse">
<stop stop-color="#A7F950"/>
<stop offset="1" stop-color="#00F0FF"/>
</linearGradient>
<linearGradient id="paint18_linear_6873_17503" x1="183.132" y1="-18.6585" x2="224.018" y2="83.1074" gradientUnits="userSpaceOnUse">
<stop stop-color="#A7F950"/>
<stop offset="1" stop-color="#00F0FF"/>
</linearGradient>
<linearGradient id="paint19_linear_6873_17503" x1="181.573" y1="-17.5138" x2="223.1" y2="85.849" gradientUnits="userSpaceOnUse">
<stop stop-color="#A7F950"/>
<stop offset="1" stop-color="#00F0FF"/>
</linearGradient>
<linearGradient id="paint20_linear_6873_17503" x1="180.015" y1="-16.3708" x2="222.187" y2="88.5967" gradientUnits="userSpaceOnUse">
<stop stop-color="#A7F950"/>
<stop offset="1" stop-color="#00F0FF"/>
</linearGradient>
<linearGradient id="paint21_linear_6873_17503" x1="178.457" y1="-15.2252" x2="221.279" y2="91.3601" gradientUnits="userSpaceOnUse">
<stop stop-color="#A7F950"/>
<stop offset="1" stop-color="#00F0FF"/>
</linearGradient>
<linearGradient id="paint22_linear_6873_17503" x1="176.899" y1="-14.0819" x2="220.434" y2="94.2764" gradientUnits="userSpaceOnUse">
<stop stop-color="#A7F950"/>
<stop offset="1" stop-color="#00F0FF"/>
</linearGradient>
<linearGradient id="paint23_linear_6873_17503" x1="175.341" y1="-12.9382" x2="219.677" y2="97.4165" gradientUnits="userSpaceOnUse">
<stop stop-color="#A7F950"/>
<stop offset="1" stop-color="#00F0FF"/>
</linearGradient>
<linearGradient id="paint24_linear_6873_17503" x1="173.783" y1="-11.7933" x2="218.922" y2="100.558" gradientUnits="userSpaceOnUse">
<stop stop-color="#A7F950"/>
<stop offset="1" stop-color="#00F0FF"/>
</linearGradient>
<linearGradient id="paint25_linear_6873_17503" x1="172.225" y1="-10.6494" x2="218.166" y2="103.699" gradientUnits="userSpaceOnUse">
<stop stop-color="#A7F950"/>
<stop offset="1" stop-color="#00F0FF"/>
</linearGradient>
<linearGradient id="paint26_linear_6873_17503" x1="170.667" y1="-9.50629" x2="217.411" y2="106.839" gradientUnits="userSpaceOnUse">
<stop stop-color="#A7F950"/>
<stop offset="1" stop-color="#00F0FF"/>
</linearGradient>
<linearGradient id="paint27_linear_6873_17503" x1="169.109" y1="-8.36069" x2="216.655" y2="109.982" gradientUnits="userSpaceOnUse">
<stop stop-color="#A7F950"/>
<stop offset="1" stop-color="#00F0FF"/>
</linearGradient>
<linearGradient id="paint28_linear_6873_17503" x1="167.551" y1="-7.21765" x2="215.899" y2="113.121" gradientUnits="userSpaceOnUse">
<stop stop-color="#A7F950"/>
<stop offset="1" stop-color="#00F0FF"/>
</linearGradient>
<linearGradient id="paint29_linear_6873_17503" x1="165.993" y1="-6.07365" x2="215.142" y2="116.26" gradientUnits="userSpaceOnUse">
<stop stop-color="#A7F950"/>
<stop offset="1" stop-color="#00F0FF"/>
</linearGradient>
<linearGradient id="paint30_linear_6873_17503" x1="164.434" y1="-4.92828" x2="214.386" y2="119.404" gradientUnits="userSpaceOnUse">
<stop stop-color="#A7F950"/>
<stop offset="1" stop-color="#00F0FF"/>
</linearGradient>
<linearGradient id="paint31_linear_6873_17503" x1="162.877" y1="-3.78491" x2="213.631" y2="122.542" gradientUnits="userSpaceOnUse">
<stop stop-color="#A7F950"/>
<stop offset="1" stop-color="#00F0FF"/>
</linearGradient>
<linearGradient id="paint32_linear_6873_17503" x1="188.358" y1="-1.5958" x2="237.091" y2="119.704" gradientUnits="userSpaceOnUse">
<stop stop-color="#A7F950"/>
<stop offset="1" stop-color="#00F0FF"/>
</linearGradient>
<linearGradient id="paint33_linear_6873_17503" x1="190.211" y1="0.423041" x2="237.493" y2="118.111" gradientUnits="userSpaceOnUse">
<stop stop-color="#A7F950"/>
<stop offset="1" stop-color="#00F0FF"/>
</linearGradient>
<linearGradient id="paint34_linear_6873_17503" x1="192.066" y1="2.44406" x2="237.896" y2="116.517" gradientUnits="userSpaceOnUse">
<stop stop-color="#A7F950"/>
<stop offset="1" stop-color="#00F0FF"/>
</linearGradient>
<linearGradient id="paint35_linear_6873_17503" x1="193.922" y1="4.46334" x2="238.3" y2="114.922" gradientUnits="userSpaceOnUse">
<stop stop-color="#A7F950"/>
<stop offset="1" stop-color="#00F0FF"/>
</linearGradient>
<linearGradient id="paint36_linear_6873_17503" x1="195.775" y1="6.48389" x2="238.701" y2="113.329" gradientUnits="userSpaceOnUse">
<stop stop-color="#A7F950"/>
<stop offset="1" stop-color="#00F0FF"/>
</linearGradient>
<linearGradient id="paint37_linear_6873_17503" x1="197.63" y1="8.50586" x2="239.104" y2="111.735" gradientUnits="userSpaceOnUse">
<stop stop-color="#A7F950"/>
<stop offset="1" stop-color="#00F0FF"/>
</linearGradient>
<linearGradient id="paint38_linear_6873_17503" x1="199.483" y1="10.5219" x2="239.506" y2="110.141" gradientUnits="userSpaceOnUse">
<stop stop-color="#A7F950"/>
<stop offset="1" stop-color="#00F0FF"/>
</linearGradient>
<linearGradient id="paint39_linear_6873_17503" x1="201.338" y1="12.5455" x2="239.908" y2="108.548" gradientUnits="userSpaceOnUse">
<stop stop-color="#A7F950"/>
<stop offset="1" stop-color="#00F0FF"/>
</linearGradient>
<linearGradient id="paint40_linear_6873_17503" x1="203.193" y1="14.5653" x2="240.311" y2="106.953" gradientUnits="userSpaceOnUse">
<stop stop-color="#A7F950"/>
<stop offset="1" stop-color="#00F0FF"/>
</linearGradient>
<linearGradient id="paint41_linear_6873_17503" x1="205.048" y1="16.5854" x2="240.713" y2="105.359" gradientUnits="userSpaceOnUse">
<stop stop-color="#A7F950"/>
<stop offset="1" stop-color="#00F0FF"/>
</linearGradient>
<linearGradient id="paint42_linear_6873_17503" x1="206.9" y1="18.6039" x2="241.115" y2="103.766" gradientUnits="userSpaceOnUse">
<stop stop-color="#A7F950"/>
<stop offset="1" stop-color="#00F0FF"/>
</linearGradient>
<linearGradient id="paint43_linear_6873_17503" x1="208.756" y1="20.6242" x2="241.518" y2="102.171" gradientUnits="userSpaceOnUse">
<stop stop-color="#A7F950"/>
<stop offset="1" stop-color="#00F0FF"/>
</linearGradient>
<linearGradient id="paint44_linear_6873_17503" x1="210.611" y1="22.6452" x2="241.921" y2="100.578" gradientUnits="userSpaceOnUse">
<stop stop-color="#A7F950"/>
<stop offset="1" stop-color="#00F0FF"/>
</linearGradient>
<linearGradient id="paint45_linear_6873_17503" x1="212.464" y1="24.6628" x2="242.323" y2="98.9836" gradientUnits="userSpaceOnUse">
<stop stop-color="#A7F950"/>
<stop offset="1" stop-color="#00F0FF"/>
</linearGradient>
<linearGradient id="paint46_linear_6873_17503" x1="214.318" y1="26.6836" x2="242.725" y2="97.3897" gradientUnits="userSpaceOnUse">
<stop stop-color="#A7F950"/>
<stop offset="1" stop-color="#00F0FF"/>
</linearGradient>
<linearGradient id="paint47_linear_6873_17503" x1="216.172" y1="28.7026" x2="243.128" y2="95.7961" gradientUnits="userSpaceOnUse">
<stop stop-color="#A7F950"/>
<stop offset="1" stop-color="#00F0FF"/>
</linearGradient>
<linearGradient id="paint48_linear_6873_17503" x1="218.026" y1="30.7214" x2="243.53" y2="94.2015" gradientUnits="userSpaceOnUse">
<stop stop-color="#A7F950"/>
<stop offset="1" stop-color="#00F0FF"/>
</linearGradient>
<linearGradient id="paint49_linear_6873_17503" x1="219.882" y1="32.7433" x2="243.934" y2="92.6083" gradientUnits="userSpaceOnUse">
<stop stop-color="#A7F950"/>
<stop offset="1" stop-color="#00F0FF"/>
</linearGradient>
<linearGradient id="paint50_linear_6873_17503" x1="221.733" y1="34.759" x2="244.334" y2="91.0146" gradientUnits="userSpaceOnUse">
<stop stop-color="#A7F950"/>
<stop offset="1" stop-color="#00F0FF"/>
</linearGradient>
<linearGradient id="paint51_linear_6873_17503" x1="223.452" y1="36.5242" x2="244.712" y2="89.4419" gradientUnits="userSpaceOnUse">
<stop stop-color="#A7F950"/>
<stop offset="1" stop-color="#00F0FF"/>
</linearGradient>
<linearGradient id="paint52_linear_6873_17503" x1="224.24" y1="36.5451" x2="244.919" y2="88.0181" gradientUnits="userSpaceOnUse">
<stop stop-color="#A7F950"/>
<stop offset="1" stop-color="#00F0FF"/>
</linearGradient>
<linearGradient id="paint53_linear_6873_17503" x1="224.979" y1="36.478" x2="245.117" y2="86.6007" gradientUnits="userSpaceOnUse">
<stop stop-color="#A7F950"/>
<stop offset="1" stop-color="#00F0FF"/>
</linearGradient>
<linearGradient id="paint54_linear_6873_17503" x1="225.676" y1="36.3289" x2="245.307" y2="85.1914" gradientUnits="userSpaceOnUse">
<stop stop-color="#A7F950"/>
<stop offset="1" stop-color="#00F0FF"/>
</linearGradient>
<linearGradient id="paint55_linear_6873_17503" x1="226.325" y1="36.0929" x2="245.488" y2="83.7894" gradientUnits="userSpaceOnUse">
<stop stop-color="#A7F950"/>
<stop offset="1" stop-color="#00F0FF"/>
</linearGradient>
<linearGradient id="paint56_linear_6873_17503" x1="226.932" y1="35.7757" x2="245.661" y2="82.393" gradientUnits="userSpaceOnUse">
<stop stop-color="#A7F950"/>
<stop offset="1" stop-color="#00F0FF"/>
</linearGradient>
<linearGradient id="paint57_linear_6873_17503" x1="227.498" y1="35.3835" x2="245.827" y2="81.0043" gradientUnits="userSpaceOnUse">
<stop stop-color="#A7F950"/>
<stop offset="1" stop-color="#00F0FF"/>
</linearGradient>
<linearGradient id="paint58_linear_6873_17503" x1="228.033" y1="34.9317" x2="245.987" y2="79.6198" gradientUnits="userSpaceOnUse">
<stop stop-color="#A7F950"/>
<stop offset="1" stop-color="#00F0FF"/>
</linearGradient>
<linearGradient id="paint59_linear_6873_17503" x1="228.54" y1="34.429" x2="246.142" y2="78.2411" gradientUnits="userSpaceOnUse">
<stop stop-color="#A7F950"/>
<stop offset="1" stop-color="#00F0FF"/>
</linearGradient>
<linearGradient id="paint60_linear_6873_17503" x1="229.02" y1="33.8737" x2="246.489" y2="77.3565" gradientUnits="userSpaceOnUse">
<stop stop-color="#A7F950"/>
<stop offset="1" stop-color="#00F0FF"/>
</linearGradient>
<linearGradient id="paint61_linear_6873_17503" x1="229.064" y1="32.503" x2="247.051" y2="77.2739" gradientUnits="userSpaceOnUse">
<stop stop-color="#A7F950"/>
<stop offset="1" stop-color="#00F0FF"/>
</linearGradient>
<linearGradient id="paint62_linear_6873_17503" x1="229.041" y1="31.0071" x2="247.636" y2="77.2925" gradientUnits="userSpaceOnUse">
<stop stop-color="#A7F950"/>
<stop offset="1" stop-color="#00F0FF"/>
</linearGradient>
<linearGradient id="paint63_linear_6873_17503" x1="229.017" y1="29.5085" x2="248.248" y2="77.3765" gradientUnits="userSpaceOnUse">
<stop stop-color="#A7F950"/>
<stop offset="1" stop-color="#00F0FF"/>
</linearGradient>
<clipPath id="clip0_6873_17503">
<rect width="353.548" height="153.335" fill="white" transform="matrix(0.927912 -0.372799 0.471004 0.882131 0 45.5889)"/>
</clipPath>
</defs>
</svg>
