<svg width="60" height="60" viewBox="0 0 60 60" fill="none" xmlns="http://www.w3.org/2000/svg">
<path d="M42.3645 7.11828C45.886 5.37448 47.6467 4.5026 48.8367 5.29423C50.0265 6.08588 49.8572 8.01678 49.519 11.8786L49.4315 12.8777C49.3352 13.9751 49.2872 14.5238 49.459 15.0211C49.6305 15.5185 50.0025 15.9082 50.7465 16.6877L51.424 17.3973C54.042 20.1402 55.351 21.5117 54.9195 22.9169C54.488 24.3222 52.6017 24.8305 48.8292 25.8472L47.8532 26.1103C46.7812 26.3993 46.2452 26.5438 45.8177 26.8793C45.3905 27.2148 45.12 27.7035 44.579 28.6807L44.0865 29.5703C42.183 33.0095 41.2315 34.729 39.775 34.8058C38.3185 34.8825 37.3217 33.2657 35.3285 30.0325L34.813 29.196C34.2465 28.277 33.9632 27.8177 33.5275 27.5278C33.0917 27.2377 32.5525 27.15 31.4742 26.9745L30.4925 26.8147C26.6982 26.1972 24.8009 25.8885 24.3322 24.5307C23.8636 23.1729 25.134 21.6654 27.6745 18.6503L28.3317 17.8703C29.0537 17.0135 29.4147 16.5851 29.5727 16.0703C29.7307 15.5556 29.668 15.0127 29.5425 13.927L29.4282 12.9385C28.9867 9.1179 28.766 7.20758 29.9327 6.2916C31.0995 5.37563 32.8812 6.06063 36.4445 7.4306L37.3665 7.78505C38.379 8.17435 38.8855 8.369 39.419 8.34085C39.9525 8.3127 40.4527 8.06495 41.4535 7.5694L42.3645 7.11828Z" fill="#99FF2D"/>
<g opacity="0.5">
<path d="M22.6113 28.3008C14.9762 33.1743 8.17778 41.9918 5.22701 50.0803C4.26963 52.7045 6.47673 55.0015 9.29171 55.0015H11.875C11.8752 54.1245 12.0806 53.0348 12.3843 51.891C12.6969 50.7138 13.1472 49.3575 13.7084 47.904C14.8305 44.998 16.4265 41.6263 18.3405 38.413C20.2477 35.2113 22.5155 32.0915 25.003 29.748C25.0645 29.69 25.1265 29.6325 25.1885 29.575C25.13 29.5573 25.0723 29.5393 25.0155 29.521C24.3048 29.2923 23.4166 28.9283 22.6113 28.3008Z" fill="#99FF2D"/>
<path d="M30.0505 30.543C29.2537 31.0305 28.4263 31.6747 27.5745 32.4772C25.4323 34.4955 23.3702 37.2967 21.5622 40.332C19.7611 43.3555 18.2563 46.5362 17.2066 49.2545C16.6819 50.6135 16.2784 51.8375 16.0087 52.853C15.7306 53.9007 15.6252 54.6157 15.625 55.0012H22.7076C22.7079 52.1912 23.6811 46.987 25.4422 41.7717C26.7347 37.945 28.5243 33.8885 30.8305 30.67L30.0505 30.543Z" fill="#99FF2D"/>
<path d="M33.245 33.7832C31.5558 36.3925 30.1175 39.6465 28.9948 42.9717C27.3 47.99 26.4575 52.7602 26.457 55.0012H29.679C32.494 55.0012 34.7603 52.7352 34.9478 49.9507C35.2698 45.1655 36.0085 40.8525 36.8523 37.7852C36.017 37.2947 35.3715 36.6502 34.8968 36.0927C34.3493 35.45 33.7985 34.6472 33.245 33.7832Z" fill="#99FF2D"/>
</g>
</svg>
